<mxfile host="app.diagrams.net" agent="Mozilla/5.0 (Windows NT 10.0; Win64; x64) AppleWebKit/537.36 (KHTML, like Gecko) Chrome/131.0.0.0 Safari/537.36" version="25.0.1">
  <diagram id="C5RBs43oDa-KdzZeNtuy" name="Page-1">
    <mxGraphModel dx="883" dy="517" grid="1" gridSize="10" guides="1" tooltips="1" connect="1" arrows="1" fold="1" page="1" pageScale="1" pageWidth="827" pageHeight="1169" math="0" shadow="0">
      <root>
        <mxCell id="WIyWlLk6GJQsqaUBKTNV-0" />
        <mxCell id="WIyWlLk6GJQsqaUBKTNV-1" parent="WIyWlLk6GJQsqaUBKTNV-0" />
        <mxCell id="RZHc7990ZfiyZQuWt0kT-3" value="do some manipulation on the model" style="edgeStyle=orthogonalEdgeStyle;rounded=0;orthogonalLoop=1;jettySize=auto;html=1;" edge="1" parent="WIyWlLk6GJQsqaUBKTNV-1" source="RZHc7990ZfiyZQuWt0kT-1" target="RZHc7990ZfiyZQuWt0kT-2">
          <mxGeometry relative="1" as="geometry" />
        </mxCell>
        <mxCell id="RZHc7990ZfiyZQuWt0kT-1" value="controller" style="rounded=1;whiteSpace=wrap;html=1;" vertex="1" parent="WIyWlLk6GJQsqaUBKTNV-1">
          <mxGeometry x="160" y="80" width="120" height="60" as="geometry" />
        </mxCell>
        <mxCell id="RZHc7990ZfiyZQuWt0kT-5" value="" style="edgeStyle=orthogonalEdgeStyle;rounded=0;orthogonalLoop=1;jettySize=auto;html=1;" edge="1" parent="WIyWlLk6GJQsqaUBKTNV-1" source="RZHc7990ZfiyZQuWt0kT-2" target="RZHc7990ZfiyZQuWt0kT-4">
          <mxGeometry relative="1" as="geometry" />
        </mxCell>
        <mxCell id="RZHc7990ZfiyZQuWt0kT-2" value="models" style="whiteSpace=wrap;html=1;rounded=1;" vertex="1" parent="WIyWlLk6GJQsqaUBKTNV-1">
          <mxGeometry x="550" y="80" width="120" height="60" as="geometry" />
        </mxCell>
        <mxCell id="RZHc7990ZfiyZQuWt0kT-4" value="views" style="whiteSpace=wrap;html=1;rounded=1;" vertex="1" parent="WIyWlLk6GJQsqaUBKTNV-1">
          <mxGeometry x="550" y="230" width="120" height="60" as="geometry" />
        </mxCell>
        <mxCell id="RZHc7990ZfiyZQuWt0kT-14" value="" style="edgeStyle=orthogonalEdgeStyle;rounded=0;orthogonalLoop=1;jettySize=auto;html=1;exitX=0.5;exitY=1;exitDx=0;exitDy=0;" edge="1" parent="WIyWlLk6GJQsqaUBKTNV-1" source="RZHc7990ZfiyZQuWt0kT-12">
          <mxGeometry relative="1" as="geometry">
            <mxPoint x="150" y="510" as="sourcePoint" />
            <mxPoint x="580" y="510" as="targetPoint" />
            <Array as="points">
              <mxPoint x="320" y="480" />
              <mxPoint x="580" y="480" />
            </Array>
          </mxGeometry>
        </mxCell>
        <mxCell id="RZHc7990ZfiyZQuWt0kT-15" style="edgeStyle=orthogonalEdgeStyle;rounded=0;orthogonalLoop=1;jettySize=auto;html=1;exitX=0.25;exitY=1;exitDx=0;exitDy=0;entryX=0.5;entryY=0;entryDx=0;entryDy=0;" edge="1" parent="WIyWlLk6GJQsqaUBKTNV-1" source="RZHc7990ZfiyZQuWt0kT-12" target="RZHc7990ZfiyZQuWt0kT-18">
          <mxGeometry relative="1" as="geometry">
            <mxPoint x="60" y="495" as="targetPoint" />
          </mxGeometry>
        </mxCell>
        <mxCell id="RZHc7990ZfiyZQuWt0kT-12" value="authentication&lt;div&gt;patterns&lt;/div&gt;" style="rounded=1;whiteSpace=wrap;html=1;" vertex="1" parent="WIyWlLk6GJQsqaUBKTNV-1">
          <mxGeometry x="260" y="390" width="120" height="60" as="geometry" />
        </mxCell>
        <mxCell id="RZHc7990ZfiyZQuWt0kT-18" value="stateless" style="rounded=1;whiteSpace=wrap;html=1;" vertex="1" parent="WIyWlLk6GJQsqaUBKTNV-1">
          <mxGeometry x="30" y="510" width="120" height="60" as="geometry" />
        </mxCell>
        <mxCell id="RZHc7990ZfiyZQuWt0kT-19" value="statefull" style="rounded=1;whiteSpace=wrap;html=1;" vertex="1" parent="WIyWlLk6GJQsqaUBKTNV-1">
          <mxGeometry x="520" y="510" width="120" height="60" as="geometry" />
        </mxCell>
        <mxCell id="RZHc7990ZfiyZQuWt0kT-20" value="which has no state&amp;nbsp;" style="text;html=1;align=center;verticalAlign=middle;whiteSpace=wrap;rounded=0;" vertex="1" parent="WIyWlLk6GJQsqaUBKTNV-1">
          <mxGeometry x="60" y="580" width="60" height="30" as="geometry" />
        </mxCell>
        <mxCell id="RZHc7990ZfiyZQuWt0kT-27" style="edgeStyle=orthogonalEdgeStyle;rounded=0;orthogonalLoop=1;jettySize=auto;html=1;exitX=0;exitY=1;exitDx=0;exitDy=0;entryX=0.75;entryY=0;entryDx=0;entryDy=0;" edge="1" parent="WIyWlLk6GJQsqaUBKTNV-1" source="RZHc7990ZfiyZQuWt0kT-21" target="RZHc7990ZfiyZQuWt0kT-25">
          <mxGeometry relative="1" as="geometry" />
        </mxCell>
        <mxCell id="RZHc7990ZfiyZQuWt0kT-21" value="which maintains state or data on server side" style="text;html=1;align=center;verticalAlign=middle;whiteSpace=wrap;rounded=0;" vertex="1" parent="WIyWlLk6GJQsqaUBKTNV-1">
          <mxGeometry x="520" y="580" width="120" height="30" as="geometry" />
        </mxCell>
        <mxCell id="RZHc7990ZfiyZQuWt0kT-23" value="" style="shape=actor;whiteSpace=wrap;html=1;" vertex="1" parent="WIyWlLk6GJQsqaUBKTNV-1">
          <mxGeometry x="100" y="700" width="40" height="60" as="geometry" />
        </mxCell>
        <mxCell id="RZHc7990ZfiyZQuWt0kT-24" value="username/password" style="edgeStyle=none;orthogonalLoop=1;jettySize=auto;html=1;rounded=0;" edge="1" parent="WIyWlLk6GJQsqaUBKTNV-1">
          <mxGeometry width="80" relative="1" as="geometry">
            <mxPoint x="160" y="710" as="sourcePoint" />
            <mxPoint x="360" y="710" as="targetPoint" />
            <Array as="points" />
          </mxGeometry>
        </mxCell>
        <mxCell id="RZHc7990ZfiyZQuWt0kT-26" value="session uid&amp;nbsp;&lt;div&gt;(unique id)&lt;/div&gt;" style="edgeStyle=orthogonalEdgeStyle;rounded=0;orthogonalLoop=1;jettySize=auto;html=1;exitX=0;exitY=0.5;exitDx=0;exitDy=0;" edge="1" parent="WIyWlLk6GJQsqaUBKTNV-1" source="RZHc7990ZfiyZQuWt0kT-25">
          <mxGeometry relative="1" as="geometry">
            <mxPoint x="150" y="730" as="targetPoint" />
          </mxGeometry>
        </mxCell>
        <mxCell id="RZHc7990ZfiyZQuWt0kT-25" value="" style="image;html=1;image=img/lib/clip_art/computers/Server_Rack_128x128.png;" vertex="1" parent="WIyWlLk6GJQsqaUBKTNV-1">
          <mxGeometry x="346" y="670" width="136" height="120" as="geometry" />
        </mxCell>
        <mxCell id="RZHc7990ZfiyZQuWt0kT-28" value="client" style="text;html=1;align=center;verticalAlign=middle;resizable=0;points=[];autosize=1;strokeColor=none;fillColor=none;" vertex="1" parent="WIyWlLk6GJQsqaUBKTNV-1">
          <mxGeometry x="85" y="758" width="50" height="30" as="geometry" />
        </mxCell>
        <mxCell id="RZHc7990ZfiyZQuWt0kT-30" value="cookies" style="edgeStyle=orthogonalEdgeStyle;rounded=0;orthogonalLoop=1;jettySize=auto;html=1;exitX=0.75;exitY=0.25;exitDx=0;exitDy=0;exitPerimeter=0;" edge="1" parent="WIyWlLk6GJQsqaUBKTNV-1" source="RZHc7990ZfiyZQuWt0kT-29">
          <mxGeometry relative="1" as="geometry">
            <mxPoint x="520" y="955" as="targetPoint" />
          </mxGeometry>
        </mxCell>
        <mxCell id="RZHc7990ZfiyZQuWt0kT-29" value="" style="shape=actor;whiteSpace=wrap;html=1;" vertex="1" parent="WIyWlLk6GJQsqaUBKTNV-1">
          <mxGeometry x="10" y="930" width="110" height="110" as="geometry" />
        </mxCell>
        <mxCell id="RZHc7990ZfiyZQuWt0kT-32" value="response" style="edgeStyle=orthogonalEdgeStyle;rounded=0;orthogonalLoop=1;jettySize=auto;html=1;exitX=0;exitY=0.5;exitDx=0;exitDy=0;" edge="1" parent="WIyWlLk6GJQsqaUBKTNV-1" source="RZHc7990ZfiyZQuWt0kT-31" target="RZHc7990ZfiyZQuWt0kT-29">
          <mxGeometry relative="1" as="geometry" />
        </mxCell>
        <mxCell id="RZHc7990ZfiyZQuWt0kT-34" style="edgeStyle=orthogonalEdgeStyle;rounded=0;orthogonalLoop=1;jettySize=auto;html=1;exitX=0;exitY=0.75;exitDx=0;exitDy=0;entryX=1;entryY=0.75;entryDx=0;entryDy=0;" edge="1" parent="WIyWlLk6GJQsqaUBKTNV-1" source="RZHc7990ZfiyZQuWt0kT-31" target="RZHc7990ZfiyZQuWt0kT-29">
          <mxGeometry relative="1" as="geometry" />
        </mxCell>
        <mxCell id="RZHc7990ZfiyZQuWt0kT-31" value="" style="image;html=1;image=img/lib/clip_art/computers/Server_Rack_128x128.png;" vertex="1" parent="WIyWlLk6GJQsqaUBKTNV-1">
          <mxGeometry x="510" y="920" width="130" height="130" as="geometry" />
        </mxCell>
        <mxCell id="RZHc7990ZfiyZQuWt0kT-33" value="headers" style="edgeStyle=orthogonalEdgeStyle;rounded=0;orthogonalLoop=1;jettySize=auto;html=1;exitX=1;exitY=0.75;exitDx=0;exitDy=0;entryX=0.023;entryY=0.708;entryDx=0;entryDy=0;entryPerimeter=0;" edge="1" parent="WIyWlLk6GJQsqaUBKTNV-1" source="RZHc7990ZfiyZQuWt0kT-29" target="RZHc7990ZfiyZQuWt0kT-31">
          <mxGeometry relative="1" as="geometry" />
        </mxCell>
        <mxCell id="RZHc7990ZfiyZQuWt0kT-44" value="" style="edgeStyle=orthogonalEdgeStyle;rounded=0;orthogonalLoop=1;jettySize=auto;html=1;" edge="1" parent="WIyWlLk6GJQsqaUBKTNV-1" source="RZHc7990ZfiyZQuWt0kT-36" target="RZHc7990ZfiyZQuWt0kT-43">
          <mxGeometry relative="1" as="geometry" />
        </mxCell>
        <mxCell id="RZHc7990ZfiyZQuWt0kT-36" value="messages" style="rounded=1;whiteSpace=wrap;html=1;" vertex="1" parent="WIyWlLk6GJQsqaUBKTNV-1">
          <mxGeometry x="110" y="1370" width="120" height="60" as="geometry" />
        </mxCell>
        <mxCell id="RZHc7990ZfiyZQuWt0kT-46" value="" style="edgeStyle=orthogonalEdgeStyle;rounded=0;orthogonalLoop=1;jettySize=auto;html=1;" edge="1" parent="WIyWlLk6GJQsqaUBKTNV-1" source="RZHc7990ZfiyZQuWt0kT-37" target="RZHc7990ZfiyZQuWt0kT-45">
          <mxGeometry relative="1" as="geometry" />
        </mxCell>
        <mxCell id="RZHc7990ZfiyZQuWt0kT-37" value="chats" style="rounded=1;whiteSpace=wrap;html=1;" vertex="1" parent="WIyWlLk6GJQsqaUBKTNV-1">
          <mxGeometry x="350" y="1370" width="120" height="60" as="geometry" />
        </mxCell>
        <mxCell id="RZHc7990ZfiyZQuWt0kT-49" value="" style="edgeStyle=orthogonalEdgeStyle;rounded=0;orthogonalLoop=1;jettySize=auto;html=1;" edge="1" parent="WIyWlLk6GJQsqaUBKTNV-1" source="RZHc7990ZfiyZQuWt0kT-38" target="RZHc7990ZfiyZQuWt0kT-48">
          <mxGeometry relative="1" as="geometry" />
        </mxCell>
        <mxCell id="RZHc7990ZfiyZQuWt0kT-38" value="users" style="rounded=1;whiteSpace=wrap;html=1;" vertex="1" parent="WIyWlLk6GJQsqaUBKTNV-1">
          <mxGeometry x="620" y="1370" width="120" height="60" as="geometry" />
        </mxCell>
        <mxCell id="RZHc7990ZfiyZQuWt0kT-43" value="sender id&lt;div&gt;content&lt;/div&gt;&lt;div&gt;chat&lt;/div&gt;" style="whiteSpace=wrap;html=1;rounded=1;" vertex="1" parent="WIyWlLk6GJQsqaUBKTNV-1">
          <mxGeometry x="110" y="1510" width="120" height="150" as="geometry" />
        </mxCell>
        <mxCell id="RZHc7990ZfiyZQuWt0kT-45" value="chatName&lt;div&gt;isGroupchat&lt;/div&gt;&lt;div&gt;users&lt;/div&gt;&lt;div&gt;latestMessage&lt;/div&gt;&lt;div&gt;groupAdmin&lt;/div&gt;" style="whiteSpace=wrap;html=1;rounded=1;" vertex="1" parent="WIyWlLk6GJQsqaUBKTNV-1">
          <mxGeometry x="350" y="1510" width="120" height="150" as="geometry" />
        </mxCell>
        <mxCell id="RZHc7990ZfiyZQuWt0kT-48" value="name&lt;div&gt;email&lt;/div&gt;&lt;div&gt;password&lt;/div&gt;&lt;div&gt;pic&lt;/div&gt;" style="rounded=1;whiteSpace=wrap;html=1;" vertex="1" parent="WIyWlLk6GJQsqaUBKTNV-1">
          <mxGeometry x="620" y="1520" width="120" height="140" as="geometry" />
        </mxCell>
        <mxCell id="RZHc7990ZfiyZQuWt0kT-51" style="edgeStyle=orthogonalEdgeStyle;rounded=0;orthogonalLoop=1;jettySize=auto;html=1;exitX=0.5;exitY=1;exitDx=0;exitDy=0;entryX=0.5;entryY=0;entryDx=0;entryDy=0;" edge="1" parent="WIyWlLk6GJQsqaUBKTNV-1" source="RZHc7990ZfiyZQuWt0kT-50" target="RZHc7990ZfiyZQuWt0kT-36">
          <mxGeometry relative="1" as="geometry" />
        </mxCell>
        <mxCell id="RZHc7990ZfiyZQuWt0kT-52" style="edgeStyle=orthogonalEdgeStyle;rounded=0;orthogonalLoop=1;jettySize=auto;html=1;exitX=0.5;exitY=1;exitDx=0;exitDy=0;entryX=0.5;entryY=0;entryDx=0;entryDy=0;" edge="1" parent="WIyWlLk6GJQsqaUBKTNV-1" source="RZHc7990ZfiyZQuWt0kT-50" target="RZHc7990ZfiyZQuWt0kT-37">
          <mxGeometry relative="1" as="geometry" />
        </mxCell>
        <mxCell id="RZHc7990ZfiyZQuWt0kT-53" style="edgeStyle=orthogonalEdgeStyle;rounded=0;orthogonalLoop=1;jettySize=auto;html=1;exitX=0.5;exitY=1;exitDx=0;exitDy=0;" edge="1" parent="WIyWlLk6GJQsqaUBKTNV-1" source="RZHc7990ZfiyZQuWt0kT-50" target="RZHc7990ZfiyZQuWt0kT-38">
          <mxGeometry relative="1" as="geometry" />
        </mxCell>
        <mxCell id="RZHc7990ZfiyZQuWt0kT-50" value="Models" style="rounded=1;whiteSpace=wrap;html=1;" vertex="1" parent="WIyWlLk6GJQsqaUBKTNV-1">
          <mxGeometry x="346" y="1210" width="120" height="60" as="geometry" />
        </mxCell>
        <mxCell id="RZHc7990ZfiyZQuWt0kT-56" value="&lt;h2&gt;request&lt;/h2&gt;" style="edgeStyle=orthogonalEdgeStyle;rounded=0;orthogonalLoop=1;jettySize=auto;html=1;exitX=1;exitY=0.25;exitDx=0;exitDy=0;entryX=0;entryY=0.25;entryDx=0;entryDy=0;" edge="1" parent="WIyWlLk6GJQsqaUBKTNV-1" source="RZHc7990ZfiyZQuWt0kT-54" target="RZHc7990ZfiyZQuWt0kT-55">
          <mxGeometry relative="1" as="geometry" />
        </mxCell>
        <mxCell id="RZHc7990ZfiyZQuWt0kT-54" value="&lt;h2&gt;client&lt;/h2&gt;" style="rounded=1;whiteSpace=wrap;html=1;" vertex="1" parent="WIyWlLk6GJQsqaUBKTNV-1">
          <mxGeometry x="70" y="1810" width="120" height="210" as="geometry" />
        </mxCell>
        <mxCell id="RZHc7990ZfiyZQuWt0kT-62" value="&lt;h2&gt;handshake (Http upgrade)&lt;/h2&gt;" style="edgeStyle=orthogonalEdgeStyle;rounded=0;orthogonalLoop=1;jettySize=auto;html=1;exitX=0;exitY=0.5;exitDx=0;exitDy=0;entryX=1;entryY=0.5;entryDx=0;entryDy=0;" edge="1" parent="WIyWlLk6GJQsqaUBKTNV-1" source="RZHc7990ZfiyZQuWt0kT-55" target="RZHc7990ZfiyZQuWt0kT-54">
          <mxGeometry relative="1" as="geometry" />
        </mxCell>
        <mxCell id="RZHc7990ZfiyZQuWt0kT-55" value="&lt;h2&gt;server&lt;/h2&gt;" style="rounded=1;whiteSpace=wrap;html=1;" vertex="1" parent="WIyWlLk6GJQsqaUBKTNV-1">
          <mxGeometry x="460" y="1810" width="120" height="210" as="geometry" />
        </mxCell>
        <mxCell id="RZHc7990ZfiyZQuWt0kT-59" value="&lt;h1&gt;websockets&lt;/h1&gt;" style="text;html=1;align=center;verticalAlign=middle;resizable=0;points=[];autosize=1;strokeColor=none;fillColor=none;" vertex="1" parent="WIyWlLk6GJQsqaUBKTNV-1">
          <mxGeometry x="240" y="1750" width="160" height="70" as="geometry" />
        </mxCell>
        <mxCell id="RZHc7990ZfiyZQuWt0kT-60" value="" style="endArrow=none;html=1;rounded=0;entryX=0.5;entryY=1;entryDx=0;entryDy=0;" edge="1" parent="WIyWlLk6GJQsqaUBKTNV-1" target="RZHc7990ZfiyZQuWt0kT-54">
          <mxGeometry width="50" height="50" relative="1" as="geometry">
            <mxPoint x="130" y="2300" as="sourcePoint" />
            <mxPoint x="430" y="1950" as="targetPoint" />
            <Array as="points" />
          </mxGeometry>
        </mxCell>
        <mxCell id="RZHc7990ZfiyZQuWt0kT-61" value="" style="endArrow=none;html=1;rounded=0;entryX=0.5;entryY=1;entryDx=0;entryDy=0;" edge="1" parent="WIyWlLk6GJQsqaUBKTNV-1">
          <mxGeometry width="50" height="50" relative="1" as="geometry">
            <mxPoint x="519" y="2300" as="sourcePoint" />
            <mxPoint x="519" y="2020" as="targetPoint" />
            <Array as="points" />
          </mxGeometry>
        </mxCell>
        <mxCell id="RZHc7990ZfiyZQuWt0kT-63" value="&lt;h3&gt;connection opened&lt;/h3&gt;" style="text;html=1;align=center;verticalAlign=middle;resizable=0;points=[];autosize=1;strokeColor=none;fillColor=none;" vertex="1" parent="WIyWlLk6GJQsqaUBKTNV-1">
          <mxGeometry x="245" y="1913" width="150" height="60" as="geometry" />
        </mxCell>
        <mxCell id="RZHc7990ZfiyZQuWt0kT-64" value="&lt;h2&gt;bidirectional Messages&lt;/h2&gt;" style="endArrow=classic;startArrow=classic;html=1;rounded=0;" edge="1" parent="WIyWlLk6GJQsqaUBKTNV-1">
          <mxGeometry width="50" height="50" relative="1" as="geometry">
            <mxPoint x="130" y="2090" as="sourcePoint" />
            <mxPoint x="520" y="2090" as="targetPoint" />
          </mxGeometry>
        </mxCell>
        <mxCell id="RZHc7990ZfiyZQuWt0kT-65" value="&lt;h2&gt;one side closed channel&lt;/h2&gt;" style="endArrow=classic;startArrow=classic;html=1;rounded=0;" edge="1" parent="WIyWlLk6GJQsqaUBKTNV-1">
          <mxGeometry width="50" height="50" relative="1" as="geometry">
            <mxPoint x="130" y="2210" as="sourcePoint" />
            <mxPoint x="520" y="2210" as="targetPoint" />
          </mxGeometry>
        </mxCell>
        <mxCell id="RZHc7990ZfiyZQuWt0kT-66" value="&lt;h4&gt;open and persistent connection&lt;/h4&gt;" style="text;html=1;align=center;verticalAlign=middle;resizable=0;points=[];autosize=1;strokeColor=none;fillColor=none;" vertex="1" parent="WIyWlLk6GJQsqaUBKTNV-1">
          <mxGeometry x="230" y="2090" width="200" height="60" as="geometry" />
        </mxCell>
        <mxCell id="RZHc7990ZfiyZQuWt0kT-67" value="&lt;h4&gt;connection closed&lt;/h4&gt;" style="text;html=1;align=center;verticalAlign=middle;resizable=0;points=[];autosize=1;strokeColor=none;fillColor=none;" vertex="1" parent="WIyWlLk6GJQsqaUBKTNV-1">
          <mxGeometry x="255" y="2213" width="130" height="60" as="geometry" />
        </mxCell>
      </root>
    </mxGraphModel>
  </diagram>
</mxfile>
